<svg width="498" height="218" viewBox="0 0 498 218" fill="none" xmlns="http://www.w3.org/2000/svg">
<g filter="url(#filter0_f_414_1960)">
<path d="M119.463 101.559C119.338 99.9997 118.753 98.7835 117.709 97.9104C116.68 97.0373 115.113 96.6007 113.008 96.6007C111.667 96.6007 110.568 96.7644 109.71 97.0918C108.868 97.4037 108.245 97.8325 107.839 98.3782C107.434 98.9239 107.223 99.5475 107.208 100.249C107.177 100.826 107.278 101.348 107.512 101.816C107.761 102.268 108.151 102.681 108.681 103.056C109.211 103.414 109.89 103.742 110.716 104.038C111.542 104.334 112.525 104.599 113.663 104.833L117.592 105.675C120.242 106.236 122.511 106.977 124.398 107.897C126.284 108.817 127.828 109.9 129.028 111.148C130.229 112.379 131.11 113.767 131.671 115.311C132.248 116.854 132.544 118.538 132.56 120.362C132.544 123.512 131.757 126.178 130.198 128.361C128.638 130.544 126.409 132.204 123.509 133.342C120.624 134.48 117.155 135.05 113.101 135.05C108.938 135.05 105.306 134.434 102.203 133.202C99.1158 131.97 96.7146 130.076 94.9996 127.519C93.3001 124.946 92.4426 121.656 92.427 117.649H104.776C104.853 119.115 105.22 120.347 105.875 121.345C106.53 122.342 107.449 123.099 108.634 123.613C109.835 124.128 111.262 124.385 112.914 124.385C114.302 124.385 115.464 124.213 116.399 123.87C117.335 123.527 118.044 123.052 118.527 122.444C119.011 121.836 119.26 121.142 119.276 120.362C119.26 119.629 119.018 118.99 118.551 118.445C118.099 117.883 117.35 117.384 116.305 116.948C115.261 116.496 113.85 116.075 112.072 115.685L107.301 114.656C103.06 113.736 99.716 112.2 97.2681 110.048C94.8359 107.881 93.6275 104.927 93.6431 101.185C93.6275 98.1443 94.4383 95.4859 96.0754 93.2095C97.7281 90.9176 100.012 89.1323 102.928 87.8538C105.859 86.5753 109.219 85.9361 113.008 85.9361C116.875 85.9361 120.219 86.5831 123.041 87.8772C125.863 89.1713 128.038 90.9955 129.566 93.3499C131.11 95.6886 131.889 98.4249 131.905 101.559H119.463ZM159.116 98.5653V107.92H135.448V98.5653H159.116ZM140.032 89.9587H152.942V122.935C152.942 123.434 153.028 123.855 153.199 124.198C153.371 124.525 153.636 124.775 153.994 124.946C154.353 125.102 154.813 125.18 155.374 125.18C155.764 125.18 156.216 125.133 156.731 125.04C157.261 124.946 157.65 124.868 157.9 124.806L159.771 133.88C159.194 134.052 158.368 134.262 157.292 134.512C156.232 134.761 154.969 134.925 153.503 135.003C150.541 135.159 148.054 134.855 146.043 134.091C144.031 133.311 142.519 132.087 141.505 130.419C140.492 128.751 140.001 126.661 140.032 124.151V89.9587ZM164.384 134.488V98.5653H176.92V105.394H177.294C177.949 102.869 178.986 101.021 180.404 99.8516C181.839 98.6822 183.515 98.0975 185.433 98.0975C185.994 98.0975 186.548 98.1443 187.093 98.2378C187.655 98.3158 188.192 98.4327 188.707 98.5886V109.604C188.068 109.386 187.28 109.222 186.345 109.113C185.409 109.004 184.606 108.949 183.936 108.949C182.673 108.949 181.535 109.238 180.521 109.815C179.524 110.376 178.736 111.171 178.159 112.2C177.582 113.214 177.294 114.406 177.294 115.778V134.488H164.384ZM208.095 135.143C204.26 135.143 200.954 134.41 198.179 132.945C195.419 131.464 193.291 129.343 191.794 126.583C190.313 123.808 189.572 120.487 189.572 116.62C189.572 112.91 190.321 109.666 191.818 106.891C193.314 104.116 195.427 101.956 198.155 100.413C200.884 98.8693 204.104 98.0975 207.814 98.0975C210.527 98.0975 212.983 98.5185 215.182 99.3604C217.38 100.202 219.259 101.426 220.818 103.032C222.377 104.623 223.578 106.556 224.42 108.832C225.261 111.109 225.682 113.674 225.682 116.527V119.52H193.595V112.411H213.802C213.786 111.382 213.521 110.477 213.006 109.698C212.508 108.902 211.829 108.287 210.972 107.85C210.13 107.398 209.171 107.172 208.095 107.172C207.05 107.172 206.092 107.398 205.218 107.85C204.345 108.287 203.644 108.895 203.114 109.674C202.599 110.454 202.326 111.366 202.295 112.411V120.082C202.295 121.235 202.537 122.264 203.02 123.169C203.503 124.073 204.197 124.783 205.102 125.297C206.006 125.812 207.097 126.069 208.376 126.069C209.264 126.069 210.075 125.944 210.808 125.695C211.556 125.445 212.196 125.087 212.726 124.619C213.256 124.135 213.646 123.559 213.895 122.888H225.682C225.277 125.383 224.318 127.55 222.806 129.39C221.293 131.214 219.29 132.633 216.795 133.646C214.316 134.644 211.416 135.143 208.095 135.143ZM240.96 135.05C238.668 135.05 236.641 134.675 234.88 133.927C233.133 133.163 231.761 132.009 230.763 130.466C229.765 128.922 229.267 126.958 229.267 124.572C229.267 122.607 229.602 120.931 230.272 119.544C230.943 118.14 231.878 116.995 233.079 116.106C234.279 115.217 235.675 114.539 237.265 114.071C238.871 113.603 240.602 113.299 242.457 113.159C244.468 113.003 246.082 112.816 247.298 112.598C248.53 112.364 249.419 112.044 249.964 111.639C250.51 111.218 250.783 110.664 250.783 109.978V109.885C250.783 108.949 250.424 108.232 249.707 107.733C248.99 107.234 248.07 106.985 246.947 106.985C245.716 106.985 244.71 107.258 243.93 107.803C243.166 108.333 242.707 109.152 242.551 110.259H230.67C230.826 108.076 231.52 106.065 232.751 104.225C233.999 102.37 235.815 100.888 238.201 99.7814C240.586 98.6588 243.564 98.0975 247.135 98.0975C249.707 98.0975 252.015 98.4015 254.057 99.0096C256.1 99.6021 257.838 100.436 259.273 101.512C260.707 102.572 261.798 103.82 262.547 105.254C263.311 106.673 263.693 108.216 263.693 109.885V134.488H251.625V129.437H251.344C250.627 130.777 249.754 131.861 248.725 132.687C247.711 133.514 246.55 134.114 245.24 134.488C243.946 134.862 242.519 135.05 240.96 135.05ZM245.17 126.911C246.152 126.911 247.072 126.708 247.93 126.303C248.803 125.897 249.512 125.313 250.058 124.549C250.604 123.785 250.876 122.857 250.876 121.766V118.772C250.533 118.912 250.167 119.045 249.777 119.17C249.403 119.294 248.998 119.411 248.561 119.52C248.14 119.629 247.688 119.731 247.205 119.824C246.737 119.918 246.246 120.004 245.731 120.082C244.733 120.238 243.915 120.495 243.276 120.853C242.652 121.196 242.184 121.625 241.872 122.14C241.576 122.639 241.428 123.2 241.428 123.824C241.428 124.821 241.779 125.585 242.48 126.116C243.182 126.646 244.079 126.911 245.17 126.911ZM269.674 86.5909H285.858L296.991 113.72H297.552L308.684 86.5909H324.868V134.488H312.146V106.798H311.771L301.107 134.114H293.436L282.771 106.611H282.397V134.488H269.674V86.5909ZM331.218 134.488V98.5653H344.128V134.488H331.218ZM337.673 94.8233C335.927 94.8233 334.43 94.2464 333.183 93.0926C331.935 91.9388 331.312 90.5512 331.312 88.9297C331.312 87.3081 331.935 85.9205 333.183 84.7667C334.43 83.6129 335.927 83.036 337.673 83.036C339.435 83.036 340.932 83.6129 342.163 84.7667C343.411 85.9205 344.034 87.3081 344.034 88.9297C344.034 90.5512 343.411 91.9388 342.163 93.0926C340.932 94.2464 339.435 94.8233 337.673 94.8233ZM363.615 114.282V134.488H350.706V98.5653H362.961V105.394H363.335C364.114 103.118 365.486 101.333 367.451 100.039C369.431 98.7446 371.739 98.0975 374.374 98.0975C376.915 98.0975 379.121 98.6822 380.992 99.8516C382.879 101.005 384.337 102.596 385.366 104.623C386.41 106.649 386.925 108.965 386.909 111.569V134.488H373.999V114.282C374.015 112.504 373.563 111.109 372.643 110.095C371.739 109.082 370.476 108.575 368.854 108.575C367.794 108.575 366.866 108.809 366.071 109.277C365.292 109.729 364.691 110.384 364.27 111.241C363.849 112.083 363.631 113.097 363.615 114.282ZM414.705 98.5653V107.92H391.037V98.5653H414.705ZM395.621 89.9587H408.531V122.935C408.531 123.434 408.617 123.855 408.788 124.198C408.96 124.525 409.225 124.775 409.583 124.946C409.942 125.102 410.402 125.18 410.963 125.18C411.353 125.18 411.805 125.133 412.32 125.04C412.85 124.946 413.24 124.868 413.489 124.806L415.36 133.88C414.783 134.052 413.957 134.262 412.881 134.512C411.821 134.761 410.558 134.925 409.092 135.003C406.13 135.159 403.643 134.855 401.632 134.091C399.62 133.311 398.108 132.087 397.094 130.419C396.081 128.751 395.59 126.661 395.621 124.151V89.9587Z" fill="white" fill-opacity="0.5"/>
</g>
<path d="M120.241 100.606C120.116 99.0467 119.531 97.8305 118.487 96.9574C117.458 96.0843 115.891 95.6477 113.786 95.6477C112.445 95.6477 111.346 95.8114 110.488 96.1388C109.646 96.4507 109.023 96.8794 108.617 97.4252C108.212 97.9709 108.002 98.5945 107.986 99.2961C107.955 99.873 108.056 100.395 108.29 100.863C108.539 101.315 108.929 101.728 109.459 102.103C109.989 102.461 110.668 102.789 111.494 103.085C112.32 103.381 113.303 103.646 114.441 103.88L118.37 104.722C121.02 105.283 123.289 106.024 125.176 106.944C127.062 107.864 128.606 108.947 129.806 110.195C131.007 111.426 131.888 112.814 132.449 114.358C133.026 115.901 133.322 117.585 133.338 119.409C133.322 122.559 132.535 125.225 130.976 127.408C129.417 129.591 127.187 131.251 124.287 132.389C121.402 133.527 117.933 134.097 113.88 134.097C109.717 134.097 106.084 133.481 102.981 132.249C99.8939 131.017 97.4928 129.123 95.7777 126.566C94.0782 123.993 93.2207 120.703 93.2051 116.696H105.554C105.632 118.162 105.998 119.394 106.653 120.392C107.308 121.389 108.228 122.146 109.413 122.66C110.613 123.175 112.04 123.432 113.692 123.432C115.08 123.432 116.242 123.26 117.177 122.917C118.113 122.574 118.822 122.099 119.305 121.491C119.789 120.883 120.038 120.189 120.054 119.409C120.038 118.676 119.797 118.037 119.329 117.492C118.877 116.93 118.128 116.431 117.084 115.995C116.039 115.543 114.628 115.122 112.851 114.732L108.079 113.703C103.839 112.783 100.494 111.247 98.0463 109.095C95.614 106.928 94.4056 103.974 94.4212 100.232C94.4056 97.1913 95.2164 94.5329 96.8535 92.2565C98.5062 89.9646 100.79 88.1793 103.706 86.9008C106.637 85.6223 109.997 84.9831 113.786 84.9831C117.653 84.9831 120.997 85.6301 123.819 86.9242C126.641 88.2183 128.816 90.0425 130.344 92.3969C131.888 94.7356 132.667 97.4719 132.683 100.606H120.241ZM159.894 97.6123V106.967H136.226V97.6123H159.894ZM140.81 89.0057H153.72V121.982C153.72 122.481 153.806 122.902 153.977 123.245C154.149 123.572 154.414 123.822 154.772 123.993C155.131 124.149 155.591 124.227 156.152 124.227C156.542 124.227 156.994 124.18 157.509 124.087C158.039 123.993 158.429 123.915 158.678 123.853L160.549 132.927C159.972 133.099 159.146 133.309 158.07 133.559C157.01 133.808 155.747 133.972 154.281 134.05C151.319 134.206 148.832 133.902 146.821 133.138C144.809 132.358 143.297 131.134 142.284 129.466C141.27 127.798 140.779 125.708 140.81 123.198V89.0057ZM165.162 133.535V97.6123H177.698V104.441H178.072C178.727 101.916 179.764 100.068 181.183 98.8986C182.617 97.7292 184.293 97.1445 186.211 97.1445C186.772 97.1445 187.326 97.1913 187.871 97.2848C188.433 97.3628 188.971 97.4797 189.485 97.6356V108.651C188.846 108.433 188.058 108.269 187.123 108.16C186.187 108.051 185.385 107.996 184.714 107.996C183.451 107.996 182.313 108.285 181.3 108.862C180.302 109.423 179.514 110.218 178.937 111.247C178.361 112.261 178.072 113.453 178.072 114.825V133.535H165.162ZM208.873 134.19C205.038 134.19 201.732 133.457 198.957 131.992C196.197 130.511 194.069 128.39 192.572 125.63C191.091 122.855 190.35 119.534 190.35 115.667C190.35 111.957 191.099 108.713 192.596 105.938C194.092 103.163 196.205 101.003 198.934 99.4599C201.662 97.9163 204.882 97.1445 208.593 97.1445C211.306 97.1445 213.761 97.5655 215.96 98.4074C218.158 99.2494 220.037 100.473 221.596 102.079C223.155 103.67 224.356 105.603 225.198 107.879C226.04 110.156 226.461 112.721 226.461 115.574V118.567H194.373V111.458H214.58C214.564 110.429 214.299 109.524 213.785 108.745C213.286 107.949 212.607 107.334 211.75 106.897C210.908 106.445 209.949 106.219 208.873 106.219C207.829 106.219 206.87 106.445 205.997 106.897C205.123 107.334 204.422 107.942 203.892 108.721C203.377 109.501 203.104 110.413 203.073 111.458V119.129C203.073 120.282 203.315 121.311 203.798 122.216C204.282 123.12 204.975 123.83 205.88 124.344C206.784 124.859 207.875 125.116 209.154 125.116C210.043 125.116 210.853 124.991 211.586 124.742C212.335 124.492 212.974 124.134 213.504 123.666C214.034 123.182 214.424 122.606 214.673 121.935H226.461C226.055 124.43 225.096 126.597 223.584 128.437C222.072 130.261 220.068 131.68 217.573 132.693C215.094 133.691 212.194 134.19 208.873 134.19ZM241.738 134.097C239.446 134.097 237.42 133.722 235.658 132.974C233.911 132.21 232.539 131.056 231.541 129.513C230.544 127.969 230.045 126.005 230.045 123.619C230.045 121.654 230.38 119.978 231.05 118.591C231.721 117.187 232.656 116.042 233.857 115.153C235.057 114.264 236.453 113.586 238.043 113.118C239.649 112.65 241.38 112.346 243.235 112.206C245.246 112.05 246.86 111.863 248.076 111.645C249.308 111.411 250.197 111.091 250.743 110.686C251.288 110.265 251.561 109.711 251.561 109.025V108.932C251.561 107.996 251.202 107.279 250.485 106.78C249.768 106.281 248.848 106.032 247.726 106.032C246.494 106.032 245.488 106.305 244.709 106.85C243.945 107.38 243.485 108.199 243.329 109.306H231.448C231.604 107.123 232.298 105.112 233.529 103.272C234.777 101.417 236.593 99.9354 238.979 98.8284C241.364 97.7058 244.342 97.1445 247.913 97.1445C250.485 97.1445 252.793 97.4485 254.835 98.0566C256.878 98.6491 258.616 99.4832 260.051 100.559C261.485 101.619 262.577 102.867 263.325 104.301C264.089 105.72 264.471 107.263 264.471 108.932V133.535H252.403V128.484H252.122C251.405 129.824 250.532 130.908 249.503 131.734C248.49 132.561 247.328 133.161 246.018 133.535C244.724 133.909 243.298 134.097 241.738 134.097ZM245.948 125.958C246.93 125.958 247.85 125.755 248.708 125.35C249.581 124.944 250.29 124.36 250.836 123.596C251.382 122.832 251.655 121.904 251.655 120.813V117.819C251.312 117.959 250.945 118.092 250.555 118.217C250.181 118.341 249.776 118.458 249.339 118.567C248.918 118.676 248.466 118.778 247.983 118.871C247.515 118.965 247.024 119.051 246.509 119.129C245.512 119.285 244.693 119.542 244.054 119.9C243.43 120.243 242.962 120.672 242.65 121.187C242.354 121.686 242.206 122.247 242.206 122.871C242.206 123.868 242.557 124.632 243.259 125.163C243.96 125.693 244.857 125.958 245.948 125.958ZM270.452 85.6379H286.636L297.769 112.767H298.33L309.462 85.6379H325.646V133.535H312.924V105.845H312.55L301.885 133.161H294.214L283.549 105.658H283.175V133.535H270.452V85.6379ZM331.996 133.535V97.6123H344.906V133.535H331.996ZM338.451 93.8703C336.705 93.8703 335.208 93.2934 333.961 92.1396C332.713 90.9858 332.09 89.5982 332.09 87.9766C332.09 86.3551 332.713 84.9675 333.961 83.8137C335.208 82.6599 336.705 82.083 338.451 82.083C340.213 82.083 341.71 82.6599 342.941 83.8137C344.189 84.9675 344.812 86.3551 344.812 87.9766C344.812 89.5982 344.189 90.9858 342.941 92.1396C341.71 93.2934 340.213 93.8703 338.451 93.8703ZM364.394 113.329V133.535H351.484V97.6123H363.739V104.441H364.113C364.892 102.165 366.265 100.38 368.229 99.0857C370.209 97.7916 372.517 97.1445 375.152 97.1445C377.693 97.1445 379.899 97.7292 381.77 98.8986C383.657 100.052 385.115 101.643 386.144 103.67C387.188 105.696 387.703 108.012 387.687 110.616V133.535H374.778V113.329C374.793 111.551 374.341 110.156 373.421 109.142C372.517 108.129 371.254 107.622 369.632 107.622C368.572 107.622 367.644 107.856 366.849 108.324C366.07 108.776 365.469 109.431 365.048 110.288C364.627 111.13 364.409 112.144 364.394 113.329ZM415.483 97.6123V106.967H391.815V97.6123H415.483ZM396.399 89.0057H409.309V121.982C409.309 122.481 409.395 122.902 409.566 123.245C409.738 123.572 410.003 123.822 410.361 123.993C410.72 124.149 411.18 124.227 411.741 124.227C412.131 124.227 412.583 124.18 413.098 124.087C413.628 123.993 414.018 123.915 414.267 123.853L416.138 132.927C415.561 133.099 414.735 133.309 413.659 133.559C412.599 133.808 411.336 133.972 409.87 134.05C406.908 134.206 404.421 133.902 402.41 133.138C400.398 132.358 398.886 131.134 397.873 129.466C396.859 127.798 396.368 125.708 396.399 123.198V89.0057Z" fill="white"/>
<path fill-rule="evenodd" clip-rule="evenodd" d="M46.5393 83.8794L14.2226 102.599C13.5525 102.938 12.9263 103.363 12.3604 103.865C11.7193 104.433 11.1664 105.091 10.7177 105.816C10.262 106.548 9.91579 107.345 9.69173 108.181C9.39423 109.291 9.31781 110.449 9.46684 111.588C9.61272 112.703 9.97181 113.779 10.5242 114.757L10.5255 114.768C11.4915 116.47 12.997 117.799 14.8034 118.545C16.6099 119.291 18.6139 119.411 20.4977 118.886C26.0203 117.386 31.8799 117.757 37.165 119.942C37.7352 120.177 38.2951 120.433 38.8441 120.707L4.3709 140.676C3.37749 141.251 2.50655 142.016 1.80786 142.928C1.10917 143.84 0.596428 144.881 0.298931 145.992C0.00143485 147.102 -0.0749868 148.26 0.0740446 149.399C0.223076 150.538 0.594636 151.637 1.16749 152.631C2.32395 154.64 4.22936 156.104 6.46482 156.703C8.70028 157.302 11.0828 156.987 13.0886 155.825L58.486 129.528C60.4912 128.366 61.955 126.454 62.5557 124.212C63.013 122.505 62.9416 120.714 62.3717 119.07L62.5208 118.929C58.1283 111.293 53.4103 107.836 45.7999 104.507L67.8788 91.7176C69.8839 90.5554 71.3478 88.6432 71.9485 86.4013C72.5492 84.1594 72.2376 81.7714 71.0822 79.7623C70.5101 78.7673 69.7478 77.8953 68.839 77.1961C68.5364 76.9634 68.2196 76.7514 67.8907 76.5611C61.3761 70.4964 53.1367 66.5856 44.2905 65.3891C37.6706 64.4937 30.9722 65.1536 24.7098 67.267C20.1773 68.7966 18.7462 74.1734 21.0899 78.3436C23.4769 82.5908 28.9032 83.895 33.6935 83.0061C36.3554 82.5121 39.0951 82.4352 41.8139 82.7953C43.4285 83.0091 45.0099 83.3736 46.5393 83.8794Z" fill="#F22F46"/>
<defs>
<filter id="filter0_f_414_1960" x="10.1034" y="0.712418" width="487.58" height="216.848" filterUnits="userSpaceOnUse" color-interpolation-filters="sRGB">
<feFlood flood-opacity="0" result="BackgroundImageFix"/>
<feBlend mode="normal" in="SourceGraphic" in2="BackgroundImageFix" result="shape"/>
<feGaussianBlur stdDeviation="41.1618" result="effect1_foregroundBlur_414_1960"/>
</filter>
</defs>
</svg>
