<svg width="419" height="92" viewBox="0 0 419 92" fill="none" xmlns="http://www.w3.org/2000/svg">
<g clip-path="url(#clip0_443_1963)">
<g filter="url(#filter0_f_443_1963)">
<path d="M119.463 36.5588C119.338 34.9997 118.753 33.7835 117.709 32.9104C116.68 32.0373 115.113 31.6007 113.008 31.6007C111.667 31.6007 110.568 31.7644 109.71 32.0918C108.868 32.4037 108.245 32.8325 107.839 33.3782C107.434 33.9239 107.223 34.5475 107.208 35.2491C107.177 35.826 107.278 36.3484 107.512 36.8161C107.761 37.2683 108.151 37.6814 108.681 38.0556C109.211 38.4142 109.89 38.7417 110.716 39.0379C111.542 39.3341 112.525 39.5992 113.663 39.8331L117.592 40.675C120.242 41.2363 122.511 41.9769 124.398 42.8968C126.284 43.8167 127.828 44.9003 129.028 46.1477C130.229 47.3794 131.11 48.7671 131.671 50.3106C132.248 51.8542 132.544 53.5381 132.56 55.3623C132.544 58.5118 131.757 61.178 130.198 63.3608C128.638 65.5436 126.409 67.2041 123.509 68.3423C120.624 69.4805 117.155 70.0496 113.101 70.0496C108.938 70.0496 105.306 69.4337 102.203 68.202C99.1158 66.9702 96.7146 65.0759 94.9996 62.5188C93.3001 59.9462 92.4426 56.6564 92.427 52.6494H104.776C104.853 54.115 105.22 55.3467 105.875 56.3446C106.53 57.3424 107.449 58.0986 108.634 58.6131C109.835 59.1277 111.262 59.3849 112.914 59.3849C114.302 59.3849 115.464 59.2134 116.399 58.8704C117.335 58.5274 118.044 58.0518 118.527 57.4438C119.011 56.8357 119.26 56.1419 119.276 55.3623C119.26 54.6295 119.018 53.9902 118.551 53.4445C118.099 52.8832 117.35 52.3843 116.305 51.9477C115.261 51.4956 113.85 51.0746 112.072 50.6848L107.301 49.6558C103.06 48.7359 99.716 47.2001 97.2681 45.0485C94.8359 42.8812 93.6275 39.9266 93.6431 36.1846C93.6275 33.1443 94.4383 30.4859 96.0754 28.2095C97.7281 25.9176 100.012 24.1323 102.928 22.8538C105.859 21.5753 109.219 20.9361 113.008 20.9361C116.875 20.9361 120.219 21.5831 123.041 22.8772C125.863 24.1713 128.038 25.9955 129.566 28.3499C131.11 30.6886 131.889 33.4249 131.905 36.5588H119.463ZM159.116 33.5653V42.9202H135.448V33.5653H159.116ZM140.032 24.9587H152.942V57.9349C152.942 58.4338 153.028 58.8548 153.199 59.1978C153.371 59.5253 153.636 59.7747 153.994 59.9462C154.353 60.1021 154.813 60.1801 155.374 60.1801C155.764 60.1801 156.216 60.1333 156.731 60.0398C157.261 59.9462 157.65 59.8683 157.9 59.8059L159.771 68.8802C159.194 69.0517 158.368 69.2622 157.292 69.5117C156.232 69.7611 154.969 69.9248 153.503 70.0028C150.541 70.1587 148.054 69.8547 146.043 69.0907C144.031 68.3111 142.519 67.0872 141.505 65.4189C140.492 63.7506 140.001 61.6613 140.032 59.1511V24.9587ZM164.384 69.4883V33.5653H176.92V40.3944H177.294C177.949 37.8685 178.986 36.0209 180.404 34.8516C181.839 33.6822 183.515 33.0975 185.433 33.0975C185.994 33.0975 186.548 33.1443 187.093 33.2378C187.655 33.3158 188.192 33.4327 188.707 33.5886V44.6041C188.068 44.3858 187.28 44.2221 186.345 44.113C185.409 44.0038 184.606 43.9493 183.936 43.9493C182.673 43.9493 181.535 44.2377 180.521 44.8146C179.524 45.3759 178.736 46.1711 178.159 47.2001C177.582 48.2136 177.294 49.4063 177.294 50.7784V69.4883H164.384ZM208.095 70.1431C204.26 70.1431 200.954 69.4103 198.179 67.9447C195.419 66.4635 193.291 64.3431 191.794 61.5833C190.313 58.808 189.572 55.487 189.572 51.6203C189.572 47.9095 190.321 44.6665 191.818 41.8912C193.314 39.1159 195.427 36.9564 198.155 35.4129C200.884 33.8693 204.104 33.0975 207.814 33.0975C210.527 33.0975 212.983 33.5185 215.182 34.3604C217.38 35.2024 219.259 36.4263 220.818 38.0322C222.377 39.6226 223.578 41.5559 224.42 43.8323C225.261 46.1087 225.682 48.6735 225.682 51.5268V54.5204H193.595V47.4106H213.802C213.786 46.3815 213.521 45.4772 213.006 44.6977C212.508 43.9025 211.829 43.2866 210.972 42.85C210.13 42.3979 209.171 42.1718 208.095 42.1718C207.05 42.1718 206.092 42.3979 205.218 42.85C204.345 43.2866 203.644 43.8947 203.114 44.6743C202.599 45.4538 202.326 46.366 202.295 47.4106V55.0817C202.295 56.2354 202.537 57.2645 203.02 58.1688C203.503 59.0731 204.197 59.7825 205.102 60.297C206.006 60.8116 207.097 61.0688 208.376 61.0688C209.264 61.0688 210.075 60.9441 210.808 60.6946C211.556 60.4452 212.196 60.0866 212.726 59.6188C213.256 59.1355 213.646 58.5586 213.895 57.8881H225.682C225.277 60.3828 224.318 62.55 222.806 64.3898C221.293 66.214 219.29 67.6329 216.795 68.6463C214.316 69.6442 211.416 70.1431 208.095 70.1431ZM240.96 70.0496C238.668 70.0496 236.641 69.6754 234.88 68.927C233.133 68.163 231.761 67.0092 230.763 65.4657C229.765 63.9221 229.267 61.9575 229.267 59.572C229.267 57.6075 229.602 55.9314 230.272 54.5437C230.943 53.1405 231.878 51.9945 233.079 51.1058C234.279 50.2171 235.675 49.5388 237.265 49.0711C238.871 48.6033 240.602 48.2993 242.457 48.159C244.468 48.0031 246.082 47.816 247.298 47.5977C248.53 47.3638 249.419 47.0442 249.964 46.6388C250.51 46.2178 250.783 45.6643 250.783 44.9783V44.8848C250.783 43.9493 250.424 43.232 249.707 42.7331C248.99 42.2342 248.07 41.9847 246.947 41.9847C245.716 41.9847 244.71 42.2576 243.93 42.8033C243.166 43.3334 242.707 44.1519 242.551 45.2589H230.67C230.826 43.0761 231.52 41.0648 232.751 39.225C233.999 37.3696 235.815 35.8884 238.201 34.7814C240.586 33.6588 243.564 33.0975 247.135 33.0975C249.707 33.0975 252.015 33.4015 254.057 34.0096C256.1 34.6021 257.838 35.4362 259.273 36.5121C260.707 37.5723 261.798 38.8196 262.547 40.254C263.311 41.6729 263.693 43.2164 263.693 44.8848V69.4883H251.625V64.4366H251.344C250.627 65.7775 249.754 66.8611 248.725 67.6875C247.711 68.5138 246.55 69.1141 245.24 69.4883C243.946 69.8625 242.519 70.0496 240.96 70.0496ZM245.17 61.9108C246.152 61.9108 247.072 61.7081 247.93 61.3027C248.803 60.8973 249.512 60.3126 250.058 59.5486C250.604 58.7847 250.876 57.857 250.876 56.7655V53.772C250.533 53.9123 250.167 54.0448 249.777 54.1695C249.403 54.2943 248.998 54.4112 248.561 54.5204C248.14 54.6295 247.688 54.7308 247.205 54.8244C246.737 54.9179 246.246 55.0037 245.731 55.0817C244.733 55.2376 243.915 55.4948 243.276 55.8534C242.652 56.1965 242.184 56.6252 241.872 57.1397C241.576 57.6387 241.428 58.2 241.428 58.8236C241.428 59.8215 241.779 60.5855 242.48 61.1156C243.182 61.6457 244.079 61.9108 245.17 61.9108ZM269.674 21.5909H285.858L296.991 48.7203H297.552L308.684 21.5909H324.868V69.4883H312.146V41.7976H311.771L301.107 69.1141H293.436L282.771 41.6105H282.397V69.4883H269.674V21.5909ZM331.218 69.4883V33.5653H344.128V69.4883H331.218ZM337.673 29.8233C335.927 29.8233 334.43 29.2464 333.183 28.0926C331.935 26.9388 331.312 25.5512 331.312 23.9297C331.312 22.3081 331.935 20.9205 333.183 19.7667C334.43 18.6129 335.927 18.036 337.673 18.036C339.435 18.036 340.932 18.6129 342.163 19.7667C343.411 20.9205 344.034 22.3081 344.034 23.9297C344.034 25.5512 343.411 26.9388 342.163 28.0926C340.932 29.2464 339.435 29.8233 337.673 29.8233ZM363.615 49.2816V69.4883H350.706V33.5653H362.961V40.3944H363.335C364.114 38.118 365.486 36.3328 367.451 35.0387C369.431 33.7446 371.739 33.0975 374.374 33.0975C376.915 33.0975 379.121 33.6822 380.992 34.8516C382.879 36.0053 384.337 37.5957 385.366 39.6226C386.41 41.6495 386.925 43.9648 386.909 46.5686V69.4883H373.999V49.2816C374.015 47.5041 373.563 46.1087 372.643 45.0952C371.739 44.0818 370.476 43.5751 368.854 43.5751C367.794 43.5751 366.866 43.8089 366.071 44.2767C365.292 44.7288 364.691 45.3837 364.27 46.2412C363.849 47.0832 363.631 48.0966 363.615 49.2816ZM414.705 33.5653V42.9202H391.037V33.5653H414.705ZM395.621 24.9587H408.531V57.9349C408.531 58.4338 408.617 58.8548 408.788 59.1978C408.96 59.5253 409.225 59.7747 409.583 59.9462C409.942 60.1021 410.402 60.1801 410.963 60.1801C411.353 60.1801 411.805 60.1333 412.32 60.0398C412.85 59.9462 413.24 59.8683 413.489 59.8059L415.36 68.8802C414.783 69.0517 413.957 69.2622 412.881 69.5117C411.821 69.7611 410.558 69.9248 409.092 70.0028C406.13 70.1587 403.643 69.8547 401.632 69.0907C399.62 68.3111 398.108 67.0872 397.094 65.4189C396.081 63.7506 395.59 61.6613 395.621 59.1511V24.9587Z" fill="white" fill-opacity="0.5"/>
</g>
<path d="M120.241 35.6058C120.116 34.0467 119.531 32.8305 118.487 31.9574C117.458 31.0843 115.891 30.6477 113.786 30.6477C112.445 30.6477 111.346 30.8114 110.488 31.1388C109.646 31.4507 109.023 31.8794 108.617 32.4252C108.212 32.9709 108.002 33.5945 107.986 34.2961C107.955 34.873 108.056 35.3954 108.29 35.8631C108.539 36.3153 108.929 36.7284 109.459 37.1026C109.989 37.4612 110.668 37.7887 111.494 38.0849C112.32 38.3811 113.303 38.6462 114.441 38.8801L118.37 39.722C121.02 40.2833 123.289 41.0239 125.176 41.9438C127.062 42.8637 128.606 43.9473 129.806 45.1947C131.007 46.4264 131.888 47.8141 132.449 49.3576C133.026 50.9012 133.322 52.5851 133.338 54.4093C133.322 57.5588 132.535 60.225 130.976 62.4078C129.417 64.5906 127.187 66.2511 124.287 67.3893C121.402 68.5275 117.933 69.0966 113.88 69.0966C109.717 69.0966 106.084 68.4807 102.981 67.249C99.8939 66.0172 97.4928 64.1229 95.7777 61.5658C94.0782 58.9932 93.2207 55.7034 93.2051 51.6964H105.554C105.632 53.162 105.998 54.3937 106.653 55.3916C107.308 56.3894 108.228 57.1456 109.413 57.6601C110.613 58.1747 112.04 58.4319 113.692 58.4319C115.08 58.4319 116.242 58.2604 117.177 57.9174C118.113 57.5744 118.822 57.0988 119.305 56.4908C119.789 55.8827 120.038 55.1889 120.054 54.4093C120.038 53.6765 119.797 53.0372 119.329 52.4915C118.877 51.9302 118.128 51.4313 117.084 50.9947C116.039 50.5426 114.628 50.1216 112.851 49.7318L108.079 48.7028C103.839 47.7829 100.494 46.2471 98.0463 44.0955C95.614 41.9282 94.4056 38.9736 94.4212 35.2316C94.4056 32.1913 95.2164 29.5329 96.8535 27.2565C98.5062 24.9646 100.79 23.1793 103.706 21.9008C106.637 20.6223 109.997 19.9831 113.786 19.9831C117.653 19.9831 120.997 20.6301 123.819 21.9242C126.641 23.2183 128.816 25.0425 130.344 27.3969C131.888 29.7356 132.667 32.4719 132.683 35.6058H120.241ZM159.894 32.6123V41.9672H136.226V32.6123H159.894ZM140.81 24.0057H153.72V56.9819C153.72 57.4808 153.806 57.9018 153.977 58.2448C154.149 58.5723 154.414 58.8217 154.772 58.9932C155.131 59.1491 155.591 59.2271 156.152 59.2271C156.542 59.2271 156.994 59.1803 157.509 59.0868C158.039 58.9932 158.429 58.9153 158.678 58.8529L160.549 67.9272C159.972 68.0987 159.146 68.3092 158.07 68.5587C157.01 68.8081 155.747 68.9718 154.281 69.0498C151.319 69.2057 148.832 68.9017 146.821 68.1377C144.809 67.3581 143.297 66.1342 142.284 64.4659C141.27 62.7976 140.779 60.7083 140.81 58.1981V24.0057ZM165.162 68.5353V32.6123H177.698V39.4414H178.072C178.727 36.9155 179.764 35.0679 181.183 33.8986C182.617 32.7292 184.293 32.1445 186.211 32.1445C186.772 32.1445 187.326 32.1913 187.871 32.2848C188.433 32.3628 188.971 32.4797 189.485 32.6356V43.6511C188.846 43.4328 188.058 43.2691 187.123 43.16C186.187 43.0508 185.385 42.9963 184.714 42.9963C183.451 42.9963 182.313 43.2847 181.3 43.8616C180.302 44.4229 179.514 45.2181 178.937 46.2471C178.361 47.2606 178.072 48.4533 178.072 49.8254V68.5353H165.162ZM208.873 69.1901C205.038 69.1901 201.732 68.4573 198.957 66.9917C196.197 65.5105 194.069 63.3901 192.572 60.6303C191.091 57.855 190.35 54.534 190.35 50.6673C190.35 46.9565 191.099 43.7135 192.596 40.9382C194.092 38.1629 196.205 36.0034 198.934 34.4599C201.662 32.9163 204.882 32.1445 208.593 32.1445C211.306 32.1445 213.761 32.5655 215.96 33.4074C218.158 34.2494 220.037 35.4733 221.596 37.0792C223.155 38.6696 224.356 40.6029 225.198 42.8793C226.04 45.1557 226.461 47.7205 226.461 50.5738V53.5674H194.373V46.4576H214.58C214.564 45.4285 214.299 44.5242 213.785 43.7446C213.286 42.9495 212.607 42.3336 211.75 41.897C210.908 41.4449 209.949 41.2188 208.873 41.2188C207.829 41.2188 206.87 41.4449 205.997 41.897C205.123 42.3336 204.422 42.9417 203.892 43.7213C203.377 44.5008 203.104 45.4129 203.073 46.4576V54.1286C203.073 55.2824 203.315 56.3115 203.798 57.2158C204.282 58.1201 204.975 58.8295 205.88 59.344C206.784 59.8586 207.875 60.1158 209.154 60.1158C210.043 60.1158 210.853 59.9911 211.586 59.7416C212.335 59.4922 212.974 59.1335 213.504 58.6658C214.034 58.1825 214.424 57.6056 214.673 56.9351H226.461C226.055 59.4298 225.096 61.597 223.584 63.4368C222.072 65.261 220.068 66.6799 217.573 67.6933C215.094 68.6912 212.194 69.1901 208.873 69.1901ZM241.738 69.0966C239.446 69.0966 237.42 68.7224 235.658 67.974C233.911 67.21 232.539 66.0562 231.541 64.5126C230.544 62.9691 230.045 61.0045 230.045 58.619C230.045 56.6545 230.38 54.9784 231.05 53.5907C231.721 52.1875 232.656 51.0415 233.857 50.1528C235.057 49.2641 236.453 48.5858 238.043 48.1181C239.649 47.6503 241.38 47.3463 243.235 47.206C245.246 47.0501 246.86 46.863 248.076 46.6447C249.308 46.4108 250.197 46.0912 250.743 45.6858C251.288 45.2648 251.561 44.7113 251.561 44.0253V43.9317C251.561 42.9963 251.202 42.279 250.485 41.7801C249.768 41.2812 248.848 41.0317 247.726 41.0317C246.494 41.0317 245.488 41.3046 244.709 41.8503C243.945 42.3804 243.485 43.1989 243.329 44.3059H231.448C231.604 42.1231 232.298 40.1118 233.529 38.272C234.777 36.4166 236.593 34.9354 238.979 33.8284C241.364 32.7058 244.342 32.1445 247.913 32.1445C250.485 32.1445 252.793 32.4485 254.835 33.0566C256.878 33.6491 258.616 34.4832 260.051 35.5591C261.485 36.6193 262.577 37.8666 263.325 39.301C264.089 40.7199 264.471 42.2634 264.471 43.9317V68.5353H252.403V63.4836H252.122C251.405 64.8245 250.532 65.9081 249.503 66.7344C248.49 67.5608 247.328 68.1611 246.018 68.5353C244.724 68.9095 243.298 69.0966 241.738 69.0966ZM245.948 60.9578C246.93 60.9578 247.85 60.7551 248.708 60.3497C249.581 59.9443 250.29 59.3596 250.836 58.5956C251.382 57.8317 251.655 56.904 251.655 55.8125V52.819C251.312 52.9593 250.945 53.0918 250.555 53.2165C250.181 53.3413 249.776 53.4582 249.339 53.5674C248.918 53.6765 248.466 53.7778 247.983 53.8714C247.515 53.9649 247.024 54.0507 246.509 54.1286C245.512 54.2846 244.693 54.5418 244.054 54.9004C243.43 55.2434 242.962 55.6722 242.65 56.1867C242.354 56.6857 242.206 57.247 242.206 57.8706C242.206 58.8685 242.557 59.6325 243.259 60.1626C243.96 60.6927 244.857 60.9578 245.948 60.9578ZM270.452 20.6379H286.636L297.769 47.7673H298.33L309.462 20.6379H325.646V68.5353H312.924V40.8446H312.55L301.885 68.1611H294.214L283.549 40.6575H283.175V68.5353H270.452V20.6379ZM331.996 68.5353V32.6123H344.906V68.5353H331.996ZM338.451 28.8703C336.705 28.8703 335.208 28.2934 333.961 27.1396C332.713 25.9858 332.09 24.5982 332.09 22.9766C332.09 21.3551 332.713 19.9675 333.961 18.8137C335.208 17.6599 336.705 17.083 338.451 17.083C340.213 17.083 341.71 17.6599 342.941 18.8137C344.189 19.9675 344.812 21.3551 344.812 22.9766C344.812 24.5982 344.189 25.9858 342.941 27.1396C341.71 28.2934 340.213 28.8703 338.451 28.8703ZM364.394 48.3286V68.5353H351.484V32.6123H363.739V39.4414H364.113C364.892 37.165 366.265 35.3798 368.229 34.0857C370.209 32.7916 372.517 32.1445 375.152 32.1445C377.693 32.1445 379.899 32.7292 381.77 33.8986C383.657 35.0523 385.115 36.6427 386.144 38.6696C387.188 40.6965 387.703 43.0118 387.687 45.6156V68.5353H374.778V48.3286C374.793 46.5511 374.341 45.1557 373.421 44.1422C372.517 43.1288 371.254 42.6221 369.632 42.6221C368.572 42.6221 367.644 42.8559 366.849 43.3237C366.07 43.7758 365.469 44.4307 365.048 45.2882C364.627 46.1302 364.409 47.1436 364.394 48.3286ZM415.483 32.6123V41.9672H391.815V32.6123H415.483ZM396.399 24.0057H409.309V56.9819C409.309 57.4808 409.395 57.9018 409.566 58.2448C409.738 58.5723 410.003 58.8217 410.361 58.9932C410.72 59.1491 411.18 59.2271 411.741 59.2271C412.131 59.2271 412.583 59.1803 413.098 59.0868C413.628 58.9932 414.018 58.9153 414.267 58.8529L416.138 67.9272C415.561 68.0987 414.735 68.3092 413.659 68.5587C412.599 68.8081 411.336 68.9718 409.87 69.0498C406.908 69.2057 404.421 68.9017 402.41 68.1377C400.398 67.3581 398.886 66.1342 397.873 64.4659C396.859 62.7976 396.368 60.7083 396.399 58.1981V24.0057Z" fill="white"/>
<path fill-rule="evenodd" clip-rule="evenodd" d="M46.5393 18.8794L14.2226 37.5993C13.5524 37.9381 12.9263 38.3629 12.3604 38.8645C11.7193 39.4331 11.1664 40.0908 10.7177 40.8156C10.262 41.5478 9.91579 42.3446 9.69173 43.1809C9.39423 44.2911 9.31781 45.449 9.46684 46.5882C9.61272 47.7034 9.97181 48.7793 10.5242 49.7572L10.5255 49.7679C11.4915 51.47 12.997 52.7994 14.8034 53.5454C16.6099 54.2913 18.6139 54.4111 20.4977 53.8858C26.0203 52.386 31.8799 52.7572 37.165 54.9416C37.7352 55.1772 38.2951 55.4325 38.8441 55.7068L4.3709 75.6758C3.37749 76.2508 2.50655 77.0162 1.80786 77.9283C1.10917 78.8404 0.596427 79.8813 0.298931 80.9916C0.00143396 82.1018 -0.0749862 83.2597 0.0740445 84.3989C0.223075 85.5382 0.594635 86.6365 1.16748 87.6311C2.32395 89.6396 4.22936 91.1044 6.46482 91.7034C8.70028 92.3024 11.0828 91.9866 13.0886 90.8254L58.486 64.5283C60.4912 63.3661 61.955 61.4539 62.5557 59.212C63.013 57.5054 62.9416 55.714 62.3717 54.0697L62.5208 53.9295C58.1283 46.2927 53.4103 42.8364 45.7999 39.5071L67.8788 26.7176C69.884 25.5554 71.3478 23.6432 71.9485 21.4013C72.5492 19.1594 72.2376 16.7714 71.0822 14.7623C70.5101 13.7673 69.7479 12.8953 68.839 12.1961C68.5365 11.9634 68.2196 11.7514 67.8907 11.5611C61.3761 5.49639 53.1367 1.58563 44.2905 0.389089C37.6706 -0.506329 30.9722 0.153587 24.7098 2.26697C20.1773 3.79655 18.7462 9.17336 21.0899 13.3436C23.4769 17.5908 28.9032 18.895 33.6935 18.0061C36.3554 17.5121 39.0951 17.4352 41.8139 17.7953C43.4285 18.0091 45.0099 18.3736 46.5393 18.8794Z" fill="#F22F46"/>
</g>
<defs>
<filter id="filter0_f_443_1963" x="10.1034" y="-64.2876" width="487.58" height="216.848" filterUnits="userSpaceOnUse" color-interpolation-filters="sRGB">
<feFlood flood-opacity="0" result="BackgroundImageFix"/>
<feBlend mode="normal" in="SourceGraphic" in2="BackgroundImageFix" result="shape"/>
<feGaussianBlur stdDeviation="41.1618" result="effect1_foregroundBlur_443_1963"/>
</filter>
<clipPath id="clip0_443_1963">
<rect width="418.334" height="92" fill="white"/>
</clipPath>
</defs>
</svg>
